<?xml version="1.0" encoding="utf-8" standalone="yes"?>
<svg xmlns="http://www.w3.org/2000/svg" version="1.1" width="2327" height="1367">
<rect width="2327" height="1367" fill="white">
</rect>
<text x="822" y="50" style="fill:black;font-family:monospace">(o &#8596; (&#172;(r &#8743; s) &#8744; o))(a &#8743; &#172;(r &#8744; &#172;b))</text>
<text x="750" y="190" style="fill:black;font-family:monospace">(o &#8594; (&#172;(r &#8743; s) &#8744; o))((&#172;(r &#8743; s) &#8744; o) &#8594; o)(a &#8743; &#172;(r &#8744; &#172;b))</text>
<text x="758" y="330" style="fill:black;font-family:monospace">(o &#8594; (&#172;(r &#8743; s) &#8744; o))((&#172;(r &#8743; s) &#8744; o) &#8594; o)(a)&#172;(r &#8744; &#172;b)</text>
<text x="766" y="470" style="fill:black;font-family:monospace">(o &#8594; (&#172;(r &#8743; s) &#8744; o))((&#172;(r &#8743; s) &#8744; o) &#8594; o)(a)(&#172;r)(b)</text>
<text x="144" y="610" style="fill:black;font-family:monospace">(&#172;o)((&#172;(r &#8743; s) &#8744; o) &#8594; o)(a)(&#172;r)(b)</text>
<text x="50" y="750" style="fill:black;font-family:monospace">(&#172;o)&#172;(&#172;(r &#8743; s) &#8744; o)(a)(&#172;r)(b)</text>
<text x="65" y="890" style="fill:black;font-family:monospace">(&#172;o)(r &#8743; s)(&#172;o)(a)(&#172;r)(b)</text>
<text x="65" y="1030" style="fill:red;font-family:monospace">(&#172;o)(r)(s)(&#172;o)(a)(&#172;r)(b)</text>
<text x="151.430000" y="1045" style="fill:red;font-family:monospace">&#10008;</text>
<line x1="151" y1="897" x2="151" y2="1015" style="stroke:black;stroke-width:2" />
<line x1="150" y1="757" x2="151" y2="875" style="stroke:black;stroke-width:2" />
<line x1="266" y1="617" x2="150" y2="735" style="stroke:black;stroke-width:2" />
<text x="365" y="750" style="fill:red;font-family:monospace">(&#172;o)(o)(a)(&#172;r)(b)</text>
<text x="422.619999" y="765" style="fill:red;font-family:monospace">&#10008;</text>
<line x1="266" y1="617" x2="422" y2="735" style="stroke:black;stroke-width:2" />
<line x1="946" y1="477" x2="266" y2="595" style="stroke:black;stroke-width:2" />
<text x="1442" y="610" style="fill:black;font-family:monospace">(&#172;(r &#8743; s) &#8744; o)((&#172;(r &#8743; s) &#8744; o) &#8594; o)(a)(&#172;r)(b)</text>
<text x="1026" y="750" style="fill:black;font-family:monospace">&#172;(r &#8743; s)((&#172;(r &#8743; s) &#8744; o) &#8594; o)(a)(&#172;r)(b)</text>
<text x="744" y="890" style="fill:black;font-family:monospace">(&#172;r)((&#172;(r &#8743; s) &#8744; o) &#8594; o)(a)(&#172;r)(b)</text>
<text x="650" y="1030" style="fill:black;font-family:monospace">(&#172;r)&#172;(&#172;(r &#8743; s) &#8744; o)(a)(&#172;r)(b)</text>
<text x="665" y="1170" style="fill:black;font-family:monospace">(&#172;r)(r &#8743; s)(&#172;o)(a)(&#172;r)(b)</text>
<text x="665" y="1310" style="fill:red;font-family:monospace">(&#172;r)(r)(s)(&#172;o)(a)(&#172;r)(b)</text>
<text x="751.430000" y="1325" style="fill:red;font-family:monospace">&#10008;</text>
<line x1="751" y1="1177" x2="751" y2="1295" style="stroke:black;stroke-width:2" />
<line x1="750" y1="1037" x2="751" y2="1155" style="stroke:black;stroke-width:2" />
<line x1="866" y1="897" x2="750" y2="1015" style="stroke:black;stroke-width:2" />
<text x="965" y="1030" style="fill:green;font-family:monospace">(&#172;r)(o)(a)(&#172;r)(b)</text>
<text x="1022.619999" y="1045" style="fill:green;font-family:monospace">&#10004;</text>
<line x1="866" y1="897" x2="1022" y2="1015" style="stroke:black;stroke-width:2" />
<line x1="1162" y1="757" x2="866" y2="875" style="stroke:black;stroke-width:2" />
<text x="1344" y="890" style="fill:black;font-family:monospace">(&#172;s)((&#172;(r &#8743; s) &#8744; o) &#8594; o)(a)(&#172;r)(b)</text>
<text x="1250" y="1030" style="fill:black;font-family:monospace">(&#172;s)&#172;(&#172;(r &#8743; s) &#8744; o)(a)(&#172;r)(b)</text>
<text x="1265" y="1170" style="fill:black;font-family:monospace">(&#172;s)(r &#8743; s)(&#172;o)(a)(&#172;r)(b)</text>
<text x="1265" y="1310" style="fill:red;font-family:monospace">(&#172;s)(r)(s)(&#172;o)(a)(&#172;r)(b)</text>
<text x="1351.430000" y="1325" style="fill:red;font-family:monospace">&#10008;</text>
<line x1="1351" y1="1177" x2="1351" y2="1295" style="stroke:black;stroke-width:2" />
<line x1="1350" y1="1037" x2="1351" y2="1155" style="stroke:black;stroke-width:2" />
<line x1="1466" y1="897" x2="1350" y2="1015" style="stroke:black;stroke-width:2" />
<text x="1565" y="1030" style="fill:green;font-family:monospace">(&#172;s)(o)(a)(&#172;r)(b)</text>
<text x="1622.619999" y="1045" style="fill:green;font-family:monospace">&#10004;</text>
<line x1="1466" y1="897" x2="1622" y2="1015" style="stroke:black;stroke-width:2" />
<line x1="1162" y1="757" x2="1466" y2="875" style="stroke:black;stroke-width:2" />
<line x1="1600" y1="617" x2="1162" y2="735" style="stroke:black;stroke-width:2" />
<text x="1944" y="750" style="fill:black;font-family:monospace">(o)((&#172;(r &#8743; s) &#8744; o) &#8594; o)(a)(&#172;r)(b)</text>
<text x="1850" y="890" style="fill:black;font-family:monospace">(o)&#172;(&#172;(r &#8743; s) &#8744; o)(a)(&#172;r)(b)</text>
<text x="1865" y="1030" style="fill:red;font-family:monospace">(o)(r &#8743; s)(&#172;o)(a)(&#172;r)(b)</text>
<text x="1951.430000" y="1045" style="fill:red;font-family:monospace">&#10008;</text>
<line x1="1950" y1="897" x2="1951" y2="1015" style="stroke:black;stroke-width:2" />
<line x1="2059" y1="757" x2="1950" y2="875" style="stroke:black;stroke-width:2" />
<text x="2165" y="890" style="fill:green;font-family:monospace">(o)(o)(a)(&#172;r)(b)</text>
<text x="2222.619999" y="905" style="fill:green;font-family:monospace">&#10004;</text>
<line x1="2059" y1="757" x2="2222" y2="875" style="stroke:black;stroke-width:2" />
<line x1="1600" y1="617" x2="2059" y2="735" style="stroke:black;stroke-width:2" />
<line x1="946" y1="477" x2="1600" y2="595" style="stroke:black;stroke-width:2" />
<line x1="945" y1="337" x2="946" y2="455" style="stroke:black;stroke-width:2" />
<line x1="944" y1="197" x2="945" y2="315" style="stroke:black;stroke-width:2" />
<line x1="944" y1="57" x2="944" y2="175" style="stroke:black;stroke-width:2" />
</svg>
