<?xml version="1.0" encoding="utf-8" standalone="yes"?>
<svg xmlns="http://www.w3.org/2000/svg" version="1.1" width="2000" height="2000">
<rect width="2000" height="2000" fill="white">
</rect>
<text x="337" y="50" style="fill:black;font-family:monospace">(a &#8744; (c &#8743; b))(a &#8596; b)</text>
<text x="316" y="190" style="fill:black;font-family:monospace">(a &#8744; (c &#8743; b))(a &#8594; b)(b &#8594; a)</text>
<text x="125" y="330" style="fill:black;font-family:monospace">(a)(a &#8594; b)(b &#8594; a)</text>
<text x="50" y="470" style="fill:red;font-family:monospace">(a)(&#172;a)(b &#8594; a)</text>
<text x="99.000000" y="485" style="fill:red;font-family:monospace">&#10008;</text>
<line x1="181" y1="337" x2="99" y2="455" style="stroke:black;stroke-width:2" />
<text x="200" y="470" style="fill:black;font-family:monospace">(a)(b)(b &#8594; a)</text>
<text x="150" y="610" style="fill:red;font-family:monospace">(a)(b)(&#172;b)</text>
<text x="185.000000" y="625" style="fill:red;font-family:monospace">&#10008;</text>
<line x1="242" y1="477" x2="185" y2="595" style="stroke:black;stroke-width:2" />
<text x="250" y="610" style="fill:green;font-family:monospace">(a)(b)(a)</text>
<text x="278.000000" y="625" style="fill:green;font-family:monospace">&#10004;</text>
<line x1="242" y1="477" x2="278" y2="595" style="stroke:black;stroke-width:2" />
<line x1="181" y1="337" x2="242" y2="455" style="stroke:black;stroke-width:2" />
<line x1="407" y1="197" x2="181" y2="315" style="stroke:black;stroke-width:2" />
<text x="507" y="330" style="fill:black;font-family:monospace">(c &#8743; b)(a &#8594; b)(b &#8594; a)</text>
<text x="507" y="470" style="fill:black;font-family:monospace">(c)(b)(a &#8594; b)(b &#8594; a)</text>
<text x="409" y="610" style="fill:black;font-family:monospace">(c)(b)(&#172;a)(b &#8594; a)</text>
<text x="350" y="750" style="fill:red;font-family:monospace">(c)(b)(&#172;a)(&#172;b)</text>
<text x="399.000000" y="765" style="fill:red;font-family:monospace">&#10008;</text>
<line x1="465" y1="617" x2="399" y2="735" style="stroke:black;stroke-width:2" />
<text x="468" y="750" style="fill:red;font-family:monospace">(c)(b)(&#172;a)(a)</text>
<text x="510.000000" y="765" style="fill:red;font-family:monospace">&#10008;</text>
<line x1="465" y1="617" x2="510" y2="735" style="stroke:black;stroke-width:2" />
<line x1="577" y1="477" x2="465" y2="595" style="stroke:black;stroke-width:2" />
<text x="605" y="610" style="fill:black;font-family:monospace">(c)(b)(b)(b &#8594; a)</text>
<text x="550" y="750" style="fill:red;font-family:monospace">(c)(b)(b)(&#172;b)</text>
<text x="592.000000" y="765" style="fill:red;font-family:monospace">&#10008;</text>
<line x1="661" y1="617" x2="592" y2="735" style="stroke:black;stroke-width:2" />
<text x="661" y="750" style="fill:green;font-family:monospace">(c)(b)(b)(a)</text>
<text x="703.000000" y="765" style="fill:green;font-family:monospace">&#10004;</text>
<line x1="661" y1="617" x2="703" y2="735" style="stroke:black;stroke-width:2" />
<line x1="577" y1="477" x2="661" y2="595" style="stroke:black;stroke-width:2" />
<line x1="577" y1="337" x2="577" y2="455" style="stroke:black;stroke-width:2" />
<line x1="407" y1="197" x2="577" y2="315" style="stroke:black;stroke-width:2" />
<line x1="407" y1="57" x2="407" y2="175" style="stroke:black;stroke-width:2" />
</svg>
